# MagicaVoxel @ Ephtracy

# group
o 

# material
mtllib Coordinates.mtl
usemtl palette

# normals
vn -1 0 0
vn 1 0 0
vn 0 0 1
vn 0 0 -1
vn 0 -1 0
vn 0 1 0

# texcoords
vt 0.681641 0.5
vt 0.841797 0.5
vt 0.880859 0.5

# verts
v -12.8 0 12.8
v -12.8 0 -12.7
v -12.8 0 -12.8
v -12.8 0.1 -12.7
v -12.8 0.1 -12.8
v -12.8 0.2 -12.6
v -12.8 0.2 -12.7
v -12.8 0.4 -12.2
v -12.8 0.4 -12.6
v -12.8 0.6 12.8
v -12.8 0.6 -12.2
v -12.8 25.6 -12.2
v -12.8 25.6 -12.8
v -12.2 0 12.8
v -12.2 0 -12.2
v -12.2 0.6 12.8
v -12.2 0.6 -12.2
v -12.2 0.6 -12.8
v -12.2 25.6 -12.2
v -12.2 25.6 -12.8
v 12.8 0 -12.2
v 12.8 0 -12.8
v 12.8 0.6 -12.2
v 12.8 0.6 -12.8
v -12.8 0 12.8
v -12.8 0.6 12.8
v -12.2 0 12.8
v -12.2 0.6 12.8
v -12.8 0.6 -12.2
v -12.8 25.6 -12.2
v -12.2 0 -12.2
v -12.2 0.6 -12.2
v -12.2 25.6 -12.2
v 12.8 0 -12.2
v 12.8 0.6 -12.2
v -12.8 0 -12.8
v -12.8 0.1 -12.8
v -12.8 25.6 -12.8
v -12.7 0.1 -12.8
v -12.7 0.2 -12.8
v -12.6 0.2 -12.8
v -12.6 0.4 -12.8
v -12.2 0.4 -12.8
v -12.2 0.6 -12.8
v -12.2 25.6 -12.8
v 12.8 0 -12.8
v 12.8 0.6 -12.8
v -12.8 0 12.8
v -12.2 0 12.8
v -12.4 0 -12.2
v -12.2 0 -12.2
v 12.8 0 -12.2
v -12.6 0 -12.4
v -12.4 0 -12.4
v -12.8 0 -12.7
v -12.6 0 -12.7
v -12.8 0 -12.8
v 12.8 0 -12.8
v -12.8 0.6 12.8
v -12.2 0.6 12.8
v -12.8 0.6 -12.2
v -12.2 0.6 -12.2
v 12.8 0.6 -12.2
v -12.2 0.6 -12.8
v 12.8 0.6 -12.8
v -12.8 25.6 -12.2
v -12.2 25.6 -12.2
v -12.8 25.6 -12.8
v -12.2 25.6 -12.8

# faces
f 4/3/1 2/3/1 1/3/1
f 4/2/1 3/2/1 2/2/1
f 5/2/1 3/2/1 4/2/1
f 6/3/1 4/3/1 1/3/1
f 7/1/1 5/1/1 4/1/1
f 7/3/1 4/3/1 6/3/1
f 8/3/1 6/3/1 1/3/1
f 9/1/1 7/1/1 6/1/1
f 9/3/1 6/3/1 8/3/1
f 10/3/1 8/3/1 1/3/1
f 11/1/1 9/1/1 8/1/1
f 11/3/1 8/3/1 10/3/1
f 12/1/1 9/1/1 11/1/1
f 13/1/1 5/1/1 7/1/1
f 13/1/1 9/1/1 12/1/1
f 13/1/1 7/1/1 9/1/1
f 14/3/2 15/3/2 16/3/2
f 16/3/2 15/3/2 17/3/2
f 17/1/2 18/1/2 19/1/2
f 19/1/2 18/1/2 20/1/2
f 21/2/2 22/2/2 23/2/2
f 23/2/2 22/2/2 24/2/2
f 27/3/3 26/3/3 25/3/3
f 28/3/3 26/3/3 27/3/3
f 32/1/3 30/1/3 29/1/3
f 33/1/3 30/1/3 32/1/3
f 34/2/3 32/2/3 31/2/3
f 35/2/3 32/2/3 34/2/3
f 36/2/4 37/2/4 39/2/4
f 37/1/4 38/1/4 39/1/4
f 39/1/4 38/1/4 40/1/4
f 39/2/4 40/2/4 41/2/4
f 40/1/4 38/1/4 41/1/4
f 41/1/4 38/1/4 42/1/4
f 41/2/4 42/2/4 43/2/4
f 42/1/4 38/1/4 43/1/4
f 43/1/4 38/1/4 44/1/4
f 44/1/4 38/1/4 45/1/4
f 36/2/4 39/2/4 46/2/4
f 39/2/4 41/2/4 46/2/4
f 43/2/4 44/2/4 46/2/4
f 41/2/4 43/2/4 46/2/4
f 46/2/4 44/2/4 47/2/4
f 50/3/5 49/3/5 48/3/5
f 51/3/5 49/3/5 50/3/5
f 53/3/5 50/3/5 48/3/5
f 54/2/5 52/2/5 51/2/5
f 54/3/5 50/3/5 53/3/5
f 54/2/5 51/2/5 50/2/5
f 55/3/5 53/3/5 48/3/5
f 56/2/5 54/2/5 53/2/5
f 56/3/5 53/3/5 55/3/5
f 57/2/5 56/2/5 55/2/5
f 58/2/5 52/2/5 54/2/5
f 58/2/5 56/2/5 57/2/5
f 58/2/5 54/2/5 56/2/5
f 59/3/6 60/3/6 61/3/6
f 61/3/6 60/3/6 62/3/6
f 62/2/6 63/2/6 64/2/6
f 64/2/6 63/2/6 65/2/6
f 66/1/6 67/1/6 68/1/6
f 68/1/6 67/1/6 69/1/6
